<svg xmlns="http://www.w3.org/2000/svg" viewBox="0 0 1057 1078" version="1.1" class="logo-img"><path d="M -0 539.061 L 0 1078 89.955 1078 L 179.909 1078 180.370 1074.750 C 180.623 1072.962, 181.298 1066.732, 181.869 1060.905 C 182.440 1055.078, 184.110 1045.509, 185.580 1039.642 C 187.816 1030.720, 188.601 1028.897, 190.377 1028.500 C 191.544 1028.239, 352.475 1000.553, 548 966.976 C 743.525 933.400, 905.064 905.650, 906.975 905.310 L 910.450 904.693 903.142 912.597 C 887.671 929.328, 877.186 948.762, 871.360 971.500 C 869.279 979.624, 868.703 984.690, 868.291 998.500 C 867.698 1018.364, 869.062 1028.452, 874.564 1044.896 C 876.477 1050.613, 877.784 1055.549, 877.469 1055.864 C 877.154 1056.179, 723.807 1061.176, 536.698 1066.968 L 196.500 1077.500 626 1077.756 C 862.225 1077.896, 1056.063 1077.798, 1056.750 1077.537 C 1057.748 1077.158, 1058 968.437, 1058 538.531 L 1058 0 536.750 0.193 C 250.063 0.299, 18.425 0.525, 22 0.695 C 25.575 0.866, 197.025 6.408, 403 13.012 C 608.975 19.616, 781.184 25.278, 785.687 25.594 L 793.875 26.169 809.255 44.835 C 875.554 125.291, 937.576 209.592, 989.996 290.500 C 997.835 302.600, 1004.752 313.127, 1005.367 313.894 C 1006.266 315.016, 1006.096 315.174, 1004.492 314.701 C 1001.256 313.746, 788.861 247.277, 548.500 172 C 425.300 133.415, 253.400 79.590, 166.500 52.387 C 79.600 25.185, 6.588 2.296, 4.250 1.525 L -0 0.121 -0 539.061 M 0.454 539.500 L 0.497 1078.500 0.999 562.500 L 1.500 46.500 8.469 263.862 L 15.438 481.224 20.897 480.582 C 30.470 479.457, 56.109 474.135, 74.086 469.541 C 91.049 465.206, 107.962 460.371, 108.683 459.651 C 108.879 459.454, 105.544 457.259, 101.270 454.774 C 66.664 434.644, 39.436 401.614, 26.030 363.500 C 20.744 348.471, 19.112 339.845, 18.476 323.576 C 17.834 307.164, 12 50.361, 12 38.527 L 12 31.268 6.750 29.275 L 1.500 27.283 0.956 13.892 C 0.656 6.526, 0.430 243.050, 0.454 539.500 M 358 162.229 C 358 163.023, 344.486 260.829, 327.969 379.576 C 306.902 531.029, 298.279 595.593, 299.082 595.861 C 303.794 597.431, 331.397 612.155, 339.500 617.420 L 349.500 623.918 350.805 619.209 C 382.563 504.619, 461.650 408.340, 568.282 354.456 L 583.064 346.986 583.460 334.243 C 583.926 319.262, 585.829 307.763, 589.912 295.271 C 593.300 284.902, 600.450 270.179, 606.237 261.653 C 608.420 258.437, 609.822 255.475, 609.353 255.071 C 608.884 254.667, 552.700 233.499, 484.500 208.031 C 416.300 182.563, 359.938 161.515, 359.250 161.256 C 358.563 160.998, 358 161.435, 358 162.229 M 588.343 409.390 C 526.430 436.413, 473.447 487.343, 443.448 548.674 C 413.806 609.275, 406.297 677.861, 422.009 744.500 C 424.804 756.357, 430.289 774.447, 431.748 776.621 C 432.262 777.387, 457.940 768.381, 512.790 748.196 C 578.998 723.832, 592.968 718.374, 592.446 717.075 C 592.097 716.209, 590.644 711.225, 589.215 706 C 586.823 697.247, 586.619 694.927, 586.619 676.500 C 586.619 658.012, 586.818 655.760, 589.263 646.706 C 603.247 594.911, 647.633 558.737, 700.200 556.293 C 732.097 554.810, 760.274 564.378, 784.904 585.055 C 797.508 595.635, 810.547 613.226, 816.614 627.832 C 818.138 631.499, 819.498 634.663, 819.637 634.861 C 819.776 635.060, 855.127 622.279, 898.195 606.460 C 941.263 590.640, 977.511 577.327, 978.746 576.875 L 980.992 576.053 978.927 570.776 C 974.289 558.920, 968.580 546.697, 962.869 536.398 C 956.614 525.117, 943.049 503.997, 942.062 504.004 C 941.753 504.006, 940.631 506.143, 939.568 508.754 C 936.660 515.899, 926.034 526.097, 918.500 528.974 C 910.308 532.103, 899.109 532.749, 891.415 530.538 C 864.177 522.708, 853.225 491.629, 869.204 467.505 C 872.880 461.956, 881.765 455.058, 887.805 453.064 C 890.112 452.303, 891.992 451.414, 891.983 451.090 C 891.953 450.086, 871.986 435.453, 862.500 429.483 C 857.550 426.368, 848.691 421.395, 842.814 418.433 L 832.129 413.048 825.596 421.414 C 806.182 446.276, 776.660 464.176, 744.339 470.681 C 732.321 473.100, 705.983 473.102, 693.818 470.686 C 657.144 463.400, 625.360 442.136, 605.085 411.322 L 600.362 404.144 588.343 409.390 M 261 462.923 C 253.769 466.715, 238.076 471.933, 225.932 474.585 L 213.364 477.328 211.093 521.914 C 209.843 546.436, 208.749 567.830, 208.661 569.455 L 208.500 572.410 217.500 573.659 C 222.450 574.347, 231.792 575.900, 238.259 577.112 C 244.727 578.323, 250.190 579.131, 250.398 578.907 C 250.607 578.683, 254.212 553.075, 258.408 522 C 262.604 490.925, 266.263 464.488, 266.538 463.250 C 267.148 460.504, 265.769 460.423, 261 462.923 M 692.272 631.437 C 674.437 635.759, 659.913 649.826, 654.595 667.932 C 653.711 670.944, 653 676.987, 653 681.500 C 653 709.925, 675.851 733, 704 733 C 729.062 733, 750.816 714.555, 755.068 689.699 C 761.130 654.270, 727.356 622.936, 692.272 631.437 M 626.500 796.919 L 253.500 914.741 251.274 921.484 C 250.050 925.193, 248.362 932.846, 247.524 938.492 C 245.822 949.954, 245.480 967, 246.952 967 C 247.476 967, 329.038 951.954, 428.202 933.565 C 527.366 915.176, 708.400 881.636, 830.500 859.032 C 952.600 836.428, 1053.313 817.604, 1054.307 817.202 C 1055.802 816.596, 1055.021 815.667, 1049.798 811.832 C 1040.601 805.079, 1025.887 789.430, 1019.451 779.556 C 1000.508 750.495, 994.067 717.220, 1000.614 682.250 C 1000.949 680.462, 1000.835 679.022, 1000.361 679.049 C 999.888 679.075, 831.650 732.117, 626.500 796.919 M 248 693.426 C 194.354 703.067, 151.425 739.753, 134.991 790 C 129.637 806.369, 127.675 820.942, 128.328 839.500 C 128.642 848.436, 129.616 858.803, 130.534 862.981 C 132.368 871.326, 136.837 886, 137.544 886 C 137.990 886, 209.358 859.902, 209.643 859.634 C 209.722 859.560, 208.961 856.350, 207.951 852.500 C 202.270 830.836, 208.830 808.044, 225.552 791.347 C 236.986 779.930, 248.929 774.287, 265.500 772.469 C 290.085 769.773, 318.073 785.571, 328.798 808.200 C 330.284 811.335, 332.044 813.922, 332.709 813.950 C 333.649 813.989, 404.717 788.271, 405.748 787.518 C 406.149 787.225, 401.042 775.026, 397.975 768.951 C 388.666 750.510, 369.733 729.081, 352.219 717.163 C 336.899 706.738, 319.391 699.105, 301 694.832 C 289.857 692.243, 259.121 691.428, 248 693.426 M 926.500 756.125 C 863.636 776.655, 584.091 869.943, 567.500 875.928 C 561.450 878.111, 557.355 879.920, 558.399 879.948 C 559.444 879.977, 649.219 862.428, 757.899 840.951 C 866.580 819.474, 965.850 799.869, 978.500 797.385 C 991.150 794.900, 1002.491 792.629, 1003.702 792.337 L 1005.904 791.807 1003.574 788.117 C 1002.292 786.087, 999.852 781.669, 998.151 778.299 C 995.827 773.696, 994.616 772.272, 993.279 772.573 C 988.508 773.647, 916.690 784.063, 915.890 783.797 C 915.384 783.628, 931.666 777.931, 952.073 771.137 C 987.095 759.478, 989.142 758.664, 988.548 756.642 C 988.202 755.464, 986.929 750.788, 985.718 746.250 C 984.507 741.712, 983.063 738.037, 982.508 738.081 C 981.954 738.126, 956.750 746.246, 926.500 756.125 M 623.250 985.326 C 480.976 1007.877, 389 1022.876, 389 1023.524 C 389 1024.237, 392.244 1024.455, 398.750 1024.178 C 532.286 1018.509, 848.063 1004.271, 848.431 1003.902 C 848.707 1003.626, 849.300 998.810, 849.749 993.200 L 850.565 983 845.929 983 C 843.379 983, 832.174 983.471, 821.027 984.047 C 809.881 984.624, 800.600 984.934, 800.403 984.737 C 800.206 984.539, 811.890 981.294, 826.368 977.525 L 852.692 970.672 855.446 961.086 C 856.960 955.814, 858.432 950.712, 858.716 949.750 C 859.001 948.788, 858.843 948.044, 858.367 948.097 C 857.890 948.151, 752.088 964.904, 623.250 985.326" stroke="none" fill="#ffffff00" fill-rule="evenodd"></path><path d="M 4.500 1.461 C 6.700 2.263, 79.600 25.178, 166.500 52.383 C 253.400 79.588, 425.300 133.415, 548.500 172 C 788.861 247.277, 1001.256 313.746, 1004.492 314.701 C 1006.096 315.174, 1006.266 315.016, 1005.367 313.894 C 1004.752 313.127, 997.835 302.600, 989.996 290.500 C 937.576 209.592, 875.554 125.291, 809.255 44.835 L 793.875 26.169 785.687 25.594 C 781.184 25.278, 608.750 19.615, 402.500 13.010 C 196.250 6.406, 21.425 0.777, 14 0.502 C 1.321 0.033, 0.743 0.091, 4.500 1.461 M 1.270 41.202 C 1.592 49.066, 4.914 151.288, 8.653 268.361 L 15.452 481.222 20.904 480.582 C 30.470 479.457, 56.114 474.133, 74.086 469.541 C 91.049 465.206, 107.962 460.371, 108.683 459.651 C 108.879 459.454, 105.544 457.259, 101.270 454.774 C 61.444 431.608, 31.360 391.028, 21 346.500 C 18.450 335.542, 18.394 333.967, 14.870 173.500 C 13.154 95.400, 11.694 31.425, 11.625 31.334 C 11.556 31.242, 9.067 30.208, 6.092 29.036 L 0.685 26.905 1.270 41.202 M 358 162.229 C 358 163.023, 344.486 260.829, 327.969 379.576 C 306.902 531.029, 298.279 595.593, 299.082 595.861 C 303.794 597.431, 331.397 612.155, 339.500 617.420 L 349.500 623.918 350.805 619.209 C 382.563 504.619, 461.650 408.340, 568.282 354.456 L 583.064 346.986 583.460 334.243 C 583.926 319.262, 585.829 307.763, 589.912 295.271 C 593.300 284.902, 600.450 270.179, 606.237 261.653 C 608.420 258.437, 609.822 255.475, 609.353 255.071 C 608.884 254.667, 552.700 233.499, 484.500 208.031 C 416.300 182.563, 359.938 161.515, 359.250 161.256 C 358.563 160.998, 358 161.435, 358 162.229 M 588.343 409.390 C 526.430 436.413, 473.447 487.343, 443.448 548.674 C 413.806 609.275, 406.297 677.861, 422.009 744.500 C 424.804 756.357, 430.289 774.447, 431.748 776.621 C 432.262 777.387, 457.940 768.381, 512.790 748.196 C 578.998 723.832, 592.968 718.374, 592.446 717.075 C 592.097 716.209, 590.644 711.225, 589.215 706 C 586.823 697.247, 586.619 694.927, 586.619 676.500 C 586.619 658.012, 586.818 655.760, 589.263 646.706 C 603.247 594.911, 647.633 558.737, 700.200 556.293 C 732.097 554.810, 760.274 564.378, 784.904 585.055 C 797.508 595.635, 810.547 613.226, 816.614 627.832 C 818.138 631.499, 819.498 634.663, 819.637 634.861 C 819.776 635.060, 855.127 622.279, 898.195 606.460 C 941.263 590.640, 977.511 577.327, 978.746 576.875 L 980.992 576.053 978.927 570.776 C 974.289 558.920, 968.580 546.697, 962.869 536.398 C 956.614 525.117, 943.049 503.997, 942.062 504.004 C 941.753 504.006, 940.631 506.143, 939.568 508.754 C 936.660 515.899, 926.034 526.097, 918.500 528.974 C 910.308 532.103, 899.109 532.749, 891.415 530.538 C 864.177 522.708, 853.225 491.629, 869.204 467.505 C 872.880 461.956, 881.765 455.058, 887.805 453.064 C 890.112 452.303, 891.992 451.414, 891.983 451.090 C 891.953 450.086, 871.986 435.453, 862.500 429.483 C 857.550 426.368, 848.691 421.395, 842.814 418.433 L 832.129 413.048 825.596 421.414 C 806.182 446.276, 776.660 464.176, 744.339 470.681 C 732.321 473.100, 705.983 473.102, 693.818 470.686 C 657.144 463.400, 625.360 442.136, 605.085 411.322 L 600.362 404.144 588.343 409.390 M 261 462.923 C 253.769 466.715, 238.076 471.933, 225.932 474.585 L 213.364 477.328 211.093 521.914 C 209.843 546.436, 208.749 567.830, 208.661 569.455 L 208.500 572.410 217.500 573.659 C 222.450 574.347, 231.792 575.900, 238.259 577.112 C 244.727 578.323, 250.190 579.131, 250.398 578.907 C 250.607 578.683, 254.212 553.075, 258.408 522 C 262.604 490.925, 266.263 464.488, 266.538 463.250 C 267.148 460.504, 265.769 460.423, 261 462.923 M 692.272 631.437 C 674.437 635.759, 659.913 649.826, 654.595 667.932 C 653.711 670.944, 653 676.987, 653 681.500 C 653 709.925, 675.851 733, 704 733 C 729.062 733, 750.816 714.555, 755.068 689.699 C 761.130 654.270, 727.356 622.936, 692.272 631.437 M 626.500 796.919 L 253.500 914.741 251.274 921.484 C 250.050 925.193, 248.362 932.846, 247.524 938.492 C 245.822 949.954, 245.480 967, 246.952 967 C 247.476 967, 329.038 951.954, 428.202 933.565 C 527.366 915.176, 708.400 881.636, 830.500 859.032 C 952.600 836.428, 1053.313 817.604, 1054.307 817.202 C 1055.802 816.596, 1055.021 815.667, 1049.798 811.832 C 1040.601 805.079, 1025.887 789.430, 1019.451 779.556 C 1000.508 750.495, 994.067 717.220, 1000.614 682.250 C 1000.949 680.462, 1000.835 679.022, 1000.361 679.049 C 999.888 679.075, 831.650 732.117, 626.500 796.919 M 248 693.426 C 194.354 703.067, 151.425 739.753, 134.991 790 C 129.637 806.369, 127.675 820.942, 128.328 839.500 C 128.642 848.436, 129.616 858.803, 130.534 862.981 C 132.368 871.326, 136.837 886, 137.544 886 C 137.990 886, 209.358 859.902, 209.643 859.634 C 209.722 859.560, 208.961 856.350, 207.951 852.500 C 202.270 830.836, 208.830 808.044, 225.552 791.347 C 236.986 779.930, 248.929 774.287, 265.500 772.469 C 290.085 769.773, 318.073 785.571, 328.798 808.200 C 330.284 811.335, 332.044 813.922, 332.709 813.950 C 333.649 813.989, 404.717 788.271, 405.748 787.518 C 406.149 787.225, 401.042 775.026, 397.975 768.951 C 388.666 750.510, 369.733 729.081, 352.219 717.163 C 336.899 706.738, 319.391 699.105, 301 694.832 C 289.857 692.243, 259.121 691.428, 248 693.426 M 926.500 756.125 C 863.636 776.655, 584.091 869.943, 567.500 875.928 C 561.450 878.111, 557.355 879.920, 558.399 879.948 C 559.444 879.977, 649.219 862.428, 757.899 840.951 C 866.580 819.474, 965.850 799.869, 978.500 797.385 C 991.150 794.900, 1002.491 792.629, 1003.702 792.337 L 1005.904 791.807 1003.574 788.117 C 1002.292 786.087, 999.852 781.669, 998.151 778.299 C 995.827 773.696, 994.616 772.272, 993.279 772.573 C 988.508 773.647, 916.690 784.063, 915.890 783.797 C 915.384 783.628, 931.666 777.931, 952.073 771.137 C 987.095 759.478, 989.142 758.664, 988.548 756.642 C 988.202 755.464, 986.929 750.788, 985.718 746.250 C 984.507 741.712, 983.063 738.037, 982.508 738.081 C 981.954 738.126, 956.750 746.246, 926.500 756.125 M 547.708 966.961 C 350.372 1000.946, 188.746 1028.921, 188.538 1029.129 C 188.330 1029.337, 187.025 1034.005, 185.638 1039.503 C 183.270 1048.892, 181.745 1058.857, 180.625 1072.250 L 180.145 1078 183.822 1077.948 C 206.589 1077.627, 877.058 1056.276, 877.475 1055.859 C 877.787 1055.547, 876.477 1050.613, 874.564 1044.896 C 869.062 1028.452, 867.698 1018.364, 868.291 998.500 C 868.703 984.690, 869.279 979.624, 871.360 971.500 C 877.166 948.838, 887.677 929.321, 903 912.750 C 907.989 907.356, 909.610 905.026, 908.333 905.086 C 907.325 905.133, 745.044 932.977, 547.708 966.961 M 623.250 985.326 C 480.976 1007.877, 389 1022.876, 389 1023.524 C 389 1024.237, 392.244 1024.455, 398.750 1024.178 C 532.286 1018.509, 848.063 1004.271, 848.431 1003.902 C 848.707 1003.626, 849.300 998.810, 849.749 993.200 L 850.565 983 845.929 983 C 843.379 983, 832.174 983.471, 821.027 984.047 C 809.881 984.624, 800.600 984.934, 800.403 984.737 C 800.206 984.539, 811.890 981.294, 826.368 977.525 L 852.692 970.672 855.446 961.086 C 856.960 955.814, 858.432 950.712, 858.716 949.750 C 859.001 948.788, 858.843 948.044, 858.367 948.097 C 857.890 948.151, 752.088 964.904, 623.250 985.326" stroke="none" fill="#ffff" fill-rule="evenodd"></path></svg>